<svg width="128" height="18" viewBox="0 0 128 18" fill="none" xmlns="http://www.w3.org/2000/svg">
<path d="M7.90056 4.99999C7.86647 4.57385 7.70667 4.24147 7.42115 4.00283C7.1399 3.76419 6.71164 3.64488 6.13635 3.64488C5.76988 3.64488 5.46945 3.68962 5.23507 3.77911C5.00496 3.86434 4.83451 3.98152 4.72371 4.13067C4.61292 4.27982 4.55539 4.45027 4.55113 4.64203C4.5426 4.7997 4.5703 4.94246 4.63422 5.0703C4.7024 5.19388 4.80894 5.30681 4.95382 5.40908C5.09871 5.50709 5.28408 5.59658 5.50993 5.67755C5.73578 5.75851 6.00425 5.83095 6.31533 5.89488L7.38919 6.12499C8.11363 6.2784 8.73365 6.48081 9.24928 6.73223C9.7649 6.98365 10.1868 7.27982 10.5149 7.62073C10.843 7.95738 11.0838 8.33664 11.2372 8.75851C11.3949 9.18039 11.4758 9.64061 11.4801 10.1392C11.4758 11 11.2606 11.7287 10.8345 12.3253C10.4084 12.9219 9.79899 13.3757 9.00638 13.6868C8.21803 13.9979 7.26988 14.1534 6.16192 14.1534C5.02414 14.1534 4.03124 13.9851 3.18323 13.6484C2.33948 13.3118 1.68323 12.794 1.21448 12.0952C0.749989 11.392 0.515614 10.4929 0.511353 9.39772H3.88635C3.90766 9.79828 4.0078 10.1349 4.18678 10.4077C4.36576 10.6804 4.61718 10.8871 4.94104 11.0277C5.26917 11.1683 5.65908 11.2386 6.11078 11.2386C6.49005 11.2386 6.80752 11.1918 7.0632 11.098C7.31888 11.0043 7.51277 10.8743 7.64488 10.7081C7.77698 10.5419 7.84516 10.3523 7.84942 10.1392C7.84516 9.93891 7.77911 9.76419 7.65127 9.61505C7.52769 9.46164 7.32314 9.32527 7.03763 9.20595C6.75212 9.08238 6.36647 8.96732 5.88067 8.86078L4.57669 8.57953C3.4176 8.32811 2.50354 7.90837 1.83451 7.3203C1.16973 6.72797 0.839478 5.92044 0.843739 4.89772C0.839478 4.06675 1.06107 3.34019 1.50851 2.71803C1.96022 2.09161 2.58451 1.60368 3.38138 1.25425C4.18252 0.904818 5.10084 0.730103 6.13635 0.730103C7.19317 0.730103 8.10723 0.906949 8.87854 1.26064C9.64985 1.61434 10.2443 2.11292 10.6619 2.75638C11.0838 3.39559 11.2969 4.14346 11.3011 4.99999H7.90056Z" fill="white"/>
<path d="M17.6583 4.18181V6.73863H11.1895V4.18181H17.6583ZM12.4424 1.82953H15.9708V10.8423C15.9708 10.9787 15.9942 11.0937 16.0411 11.1875C16.088 11.277 16.1604 11.3452 16.2584 11.392C16.3564 11.4346 16.4821 11.456 16.6355 11.456C16.7421 11.456 16.8657 11.4432 17.0063 11.4176C17.1512 11.392 17.2577 11.3707 17.3259 11.3537L17.8372 13.8338C17.6796 13.8807 17.4537 13.9382 17.1597 14.0064C16.8699 14.0746 16.5247 14.1193 16.1242 14.1406C15.3145 14.1832 14.6348 14.1001 14.0851 13.8913C13.5354 13.6783 13.122 13.3437 12.8451 12.8878C12.5681 12.4318 12.4338 11.8608 12.4424 11.1747V1.82953Z" fill="white"/>
<path d="M22.6172 14.179C21.5689 14.179 20.6655 13.9787 19.9069 13.5781C19.1527 13.1733 18.571 12.5937 18.1619 11.8395C17.7571 11.081 17.5547 10.1733 17.5547 9.11647C17.5547 8.10226 17.7592 7.2159 18.1683 6.45738C18.5774 5.69885 19.1548 5.10865 19.9005 4.68678C20.6463 4.2649 21.5262 4.05397 22.5405 4.05397C23.2819 4.05397 23.9531 4.16902 24.5539 4.39914C25.1548 4.62925 25.6683 4.96377 26.0944 5.40269C26.5206 5.83735 26.8487 6.36576 27.0788 6.98792C27.3089 7.61007 27.424 8.31107 27.424 9.0909V9.90908H18.6541V7.9659H24.1768C24.1726 7.68465 24.1001 7.43749 23.9595 7.22442C23.8231 7.00709 23.6378 6.83877 23.4034 6.71945C23.1733 6.59587 22.9112 6.53408 22.6172 6.53408C22.3316 6.53408 22.0696 6.59587 21.8309 6.71945C21.5923 6.83877 21.4005 7.00496 21.2556 7.21803C21.115 7.4311 21.0405 7.68039 21.0319 7.9659V10.0625C21.0319 10.3778 21.098 10.6591 21.2301 10.9062C21.3622 11.1534 21.5518 11.3473 21.799 11.4879C22.0461 11.6285 22.3444 11.6989 22.6939 11.6989C22.9368 11.6989 23.1583 11.6648 23.3586 11.5966C23.5632 11.5284 23.7379 11.4304 23.8828 11.3025C24.0277 11.1704 24.1342 11.0128 24.2024 10.8295H27.424C27.3132 11.5114 27.0511 12.1037 26.6378 12.6065C26.2244 13.1051 25.6768 13.4929 24.995 13.7699C24.3174 14.0426 23.5248 14.179 22.6172 14.179Z" fill="white"/>
<path d="M30.5196 14.1534C29.8932 14.1534 29.3392 14.0511 28.8576 13.8466C28.3804 13.6378 28.0054 13.3224 27.7326 12.9006C27.4599 12.4787 27.3236 11.9418 27.3236 11.2898C27.3236 10.7528 27.4152 10.2947 27.5984 9.91547C27.7817 9.53195 28.0373 9.21874 28.3655 8.97584C28.6936 8.73294 29.075 8.54757 29.5096 8.41973C29.9486 8.29189 30.4216 8.2088 30.9287 8.17044C31.4784 8.12783 31.9194 8.07669 32.2518 8.01703C32.5885 7.95311 32.8314 7.86576 32.9805 7.75496C33.1297 7.6399 33.2042 7.48863 33.2042 7.30113V7.27556C33.2042 7.01988 33.1062 6.82385 32.9102 6.68749C32.7142 6.55113 32.4628 6.48294 32.1559 6.48294C31.8193 6.48294 31.5444 6.55752 31.3314 6.70667C31.1226 6.85155 30.9969 7.07527 30.9542 7.37783H27.7071C27.7497 6.78124 27.9393 6.23152 28.276 5.72868C28.6169 5.22158 29.1133 4.81675 29.7653 4.51419C30.4173 4.20738 31.2312 4.05397 32.2071 4.05397C32.9102 4.05397 33.5409 4.13706 34.0991 4.30326C34.6574 4.46519 35.1325 4.69317 35.5245 4.98721C35.9166 5.27698 36.2149 5.61789 36.4194 6.00993C36.6282 6.39772 36.7326 6.81959 36.7326 7.27556V14H33.4343V12.6193H33.3576C33.1616 12.9858 32.923 13.2819 32.6417 13.5078C32.3647 13.7337 32.0473 13.8977 31.6893 14C31.3356 14.1023 30.9457 14.1534 30.5196 14.1534ZM31.6701 11.929C31.9386 11.929 32.19 11.8736 32.4244 11.7628C32.663 11.652 32.8569 11.4922 33.0061 11.2834C33.1552 11.0746 33.2298 10.821 33.2298 10.5227V9.70453C33.1361 9.74289 33.0359 9.77911 32.9294 9.8132C32.8271 9.84729 32.7163 9.87925 32.597 9.90908C32.4819 9.93891 32.3584 9.96661 32.2263 9.99218C32.0984 10.0177 31.9642 10.0412 31.8236 10.0625C31.5508 10.1051 31.3271 10.1754 31.1524 10.2734C30.9819 10.3672 30.8541 10.4844 30.7689 10.625C30.6879 10.7614 30.6474 10.9148 30.6474 11.0852C30.6474 11.3579 30.7433 11.5668 30.9351 11.7116C31.1268 11.8565 31.3718 11.929 31.6701 11.929Z" fill="white"/>
<path d="M37.3385 14V4.18181H40.688V6.04828H40.7903C40.9948 5.43465 41.3442 4.94885 41.8385 4.5909C42.3329 4.23294 42.9209 4.05397 43.6028 4.05397C44.2931 4.05397 44.8876 4.23721 45.3861 4.60368C45.8847 4.9659 46.1851 5.44743 46.2874 6.04828H46.3897C46.5559 5.44743 46.9096 4.9659 47.4508 4.60368C47.992 4.23721 48.6269 4.05397 49.3556 4.05397C50.2974 4.05397 51.0601 4.35652 51.6439 4.96164C52.232 5.56675 52.526 6.37215 52.526 7.37783V14H48.9976V8.27272C48.9976 7.84232 48.889 7.50567 48.6716 7.26277C48.4543 7.01561 48.1624 6.89203 47.7959 6.89203C47.4337 6.89203 47.1461 7.01561 46.933 7.26277C46.7242 7.50567 46.6198 7.84232 46.6198 8.27272V14H43.2448V8.27272C43.2448 7.84232 43.1361 7.50567 42.9188 7.26277C42.7015 7.01561 42.4096 6.89203 42.0431 6.89203C41.8002 6.89203 41.5914 6.94743 41.4167 7.05823C41.242 7.16902 41.1056 7.32882 41.0076 7.53763C40.9138 7.74218 40.867 7.98721 40.867 8.27272V14H37.3385Z" fill="white"/>
<path d="M60.192 4.99999C60.1579 4.57385 59.9981 4.24147 59.7126 4.00283C59.4313 3.76419 59.003 3.64488 58.4278 3.64488C58.0613 3.64488 57.7609 3.68962 57.5265 3.77911C57.2964 3.86434 57.1259 3.98152 57.0151 4.13067C56.9043 4.27982 56.8468 4.45027 56.8425 4.64203C56.834 4.7997 56.8617 4.94246 56.9256 5.0703C56.9938 5.19388 57.1003 5.30681 57.2452 5.40908C57.3901 5.50709 57.5755 5.59658 57.8013 5.67755C58.0272 5.75851 58.2957 5.83095 58.6067 5.89488L59.6806 6.12499C60.405 6.2784 61.0251 6.48081 61.5407 6.73223C62.0563 6.98365 62.4782 7.27982 62.8063 7.62073C63.1344 7.95738 63.3752 8.33664 63.5286 8.75851C63.6863 9.18039 63.7672 9.64061 63.7715 10.1392C63.7672 11 63.552 11.7287 63.1259 12.3253C62.6998 12.9219 62.0904 13.3757 61.2978 13.6868C60.5094 13.9979 59.5613 14.1534 58.4533 14.1534C57.3155 14.1534 56.3226 13.9851 55.4746 13.6484C54.6309 13.3118 53.9746 12.794 53.5059 12.0952C53.0414 11.392 52.807 10.4929 52.8028 9.39772H56.1778C56.1991 9.79828 56.2992 10.1349 56.4782 10.4077C56.6572 10.6804 56.9086 10.8871 57.2324 11.0277C57.5606 11.1683 57.9505 11.2386 58.4022 11.2386C58.7815 11.2386 59.0989 11.1918 59.3546 11.098C59.6103 11.0043 59.8042 10.8743 59.9363 10.7081C60.0684 10.5419 60.1366 10.3523 60.1408 10.1392C60.1366 9.93891 60.0705 9.76419 59.9427 9.61505C59.8191 9.46164 59.6145 9.32527 59.329 9.20595C59.0435 9.08238 58.6579 8.96732 58.1721 8.86078L56.8681 8.57953C55.709 8.32811 54.7949 7.90837 54.1259 7.3203C53.4611 6.72797 53.1309 5.92044 53.1351 4.89772C53.1309 4.06675 53.3525 3.34019 53.7999 2.71803C54.2516 2.09161 54.8759 1.60368 55.6728 1.25425C56.4739 0.904818 57.3922 0.730103 58.4278 0.730103C59.4846 0.730103 60.3986 0.906949 61.1699 1.26064C61.9413 1.61434 62.5357 2.11292 62.9533 2.75638C63.3752 3.39559 63.5883 4.14346 63.5925 4.99999H60.192Z" fill="white"/>
<path d="M68.8247 14.179C67.7593 14.179 66.8474 13.968 66.0889 13.5462C65.3304 13.12 64.7487 12.5277 64.3439 11.7692C63.939 11.0064 63.7366 10.1221 63.7366 9.11647C63.7366 8.11078 63.939 7.22868 64.3439 6.47016C64.7487 5.70738 65.3304 5.11505 66.0889 4.69317C66.8474 4.26703 67.7593 4.05397 68.8247 4.05397C69.7877 4.05397 70.6208 4.22868 71.324 4.57811C72.0314 4.92328 72.5789 5.41334 72.9667 6.04828C73.3545 6.67897 73.5505 7.42044 73.5548 8.27272H70.2821C70.2352 7.75709 70.086 7.36505 69.8346 7.09658C69.5875 6.82385 69.2679 6.68749 68.8758 6.68749C68.569 6.68749 68.3005 6.77698 68.0704 6.95596C67.8403 7.13067 67.6613 7.39701 67.5335 7.75496C67.4056 8.10865 67.3417 8.55397 67.3417 9.0909C67.3417 9.62783 67.4056 10.0753 67.5335 10.4332C67.6613 10.7869 67.8403 11.0533 68.0704 11.2322C68.3005 11.4069 68.569 11.4943 68.8758 11.4943C69.1358 11.4943 69.3659 11.4346 69.5662 11.3153C69.7664 11.1918 69.9284 11.0128 70.0519 10.7784C70.1798 10.5398 70.2565 10.25 70.2821 9.90908H73.5548C73.542 10.7741 73.3438 11.5284 72.9603 12.1719C72.5768 12.8111 72.0335 13.3054 71.3304 13.6548C70.6315 14.0043 69.7963 14.179 68.8247 14.179Z" fill="white"/>
<path d="M73.9306 14V4.18181H77.3567V6.04828H77.459C77.638 5.35794 77.9214 4.85297 78.3091 4.53337C78.7012 4.21377 79.1593 4.05397 79.6834 4.05397C79.8368 4.05397 79.9881 4.06675 80.1373 4.09232C80.2907 4.11363 80.4377 4.14559 80.5783 4.1882V7.19885C80.4036 7.13919 80.1884 7.09445 79.9327 7.06462C79.677 7.03479 79.4576 7.01988 79.2743 7.01988C78.9292 7.01988 78.6181 7.09871 78.3411 7.25638C78.0684 7.40979 77.8532 7.62712 77.6955 7.90837C77.5378 8.18536 77.459 8.51135 77.459 8.88635V14H73.9306Z" fill="white"/>
<path d="M82.934 14.1534C82.3076 14.1534 81.7536 14.0511 81.2721 13.8466C80.7948 13.6378 80.4198 13.3224 80.1471 12.9006C79.8744 12.4787 79.738 11.9418 79.738 11.2898C79.738 10.7528 79.8296 10.2947 80.0129 9.91547C80.1961 9.53195 80.4518 9.21874 80.7799 8.97584C81.108 8.73294 81.4894 8.54757 81.9241 8.41973C82.363 8.29189 82.836 8.2088 83.3431 8.17044C83.8928 8.12783 84.3339 8.07669 84.6663 8.01703C85.0029 7.95311 85.2458 7.86576 85.395 7.75496C85.5441 7.6399 85.6187 7.48863 85.6187 7.30113V7.27556C85.6187 7.01988 85.5207 6.82385 85.3247 6.68749C85.1286 6.55113 84.8772 6.48294 84.5704 6.48294C84.2337 6.48294 83.9589 6.55752 83.7458 6.70667C83.537 6.85155 83.4113 7.07527 83.3687 7.37783H80.1215C80.1641 6.78124 80.3538 6.23152 80.6904 5.72868C81.0313 5.22158 81.5278 4.81675 82.1798 4.51419C82.8318 4.20738 83.6457 4.05397 84.6215 4.05397C85.3247 4.05397 85.9553 4.13706 86.5136 4.30326C87.0718 4.46519 87.547 4.69317 87.939 4.98721C88.331 5.27698 88.6293 5.61789 88.8339 6.00993C89.0427 6.39772 89.1471 6.81959 89.1471 7.27556V14H85.8488V12.6193H85.7721C85.5761 12.9858 85.3374 13.2819 85.0562 13.5078C84.7792 13.7337 84.4617 13.8977 84.1038 14C83.7501 14.1023 83.3602 14.1534 82.934 14.1534ZM84.0846 11.929C84.3531 11.929 84.6045 11.8736 84.8389 11.7628C85.0775 11.652 85.2714 11.4922 85.4205 11.2834C85.5697 11.0746 85.6443 10.821 85.6443 10.5227V9.70453C85.5505 9.74289 85.4504 9.77911 85.3438 9.8132C85.2416 9.84729 85.1308 9.87925 85.0114 9.90908C84.8964 9.93891 84.7728 9.96661 84.6407 9.99218C84.5129 10.0177 84.3786 10.0412 84.238 10.0625C83.9653 10.1051 83.7416 10.1754 83.5668 10.2734C83.3964 10.3672 83.2685 10.4844 83.1833 10.625C83.1024 10.7614 83.0619 10.9148 83.0619 11.0852C83.0619 11.3579 83.1577 11.5668 83.3495 11.7116C83.5413 11.8565 83.7863 11.929 84.0846 11.929Z" fill="white"/>
<path d="M89.753 17.6818V4.18181H93.2558V5.89488H93.3325C93.4604 5.56249 93.6479 5.2578 93.895 4.98081C94.1422 4.69956 94.449 4.47584 94.8155 4.30965C95.182 4.13919 95.6081 4.05397 96.0939 4.05397C96.7416 4.05397 97.3574 4.22655 97.9412 4.57172C98.5293 4.91689 99.0065 5.46022 99.373 6.20169C99.7438 6.94317 99.9291 7.90624 99.9291 9.0909C99.9291 10.2244 99.7523 11.1641 99.3986 11.9098C99.0492 12.6555 98.5804 13.2116 97.9923 13.5781C97.4085 13.9446 96.7672 14.1278 96.0683 14.1278C95.6081 14.1278 95.1969 14.0533 94.8347 13.9041C94.4767 13.7507 94.1699 13.544 93.9142 13.2841C93.6628 13.0199 93.4689 12.7216 93.3325 12.3892H93.2814V17.6818H89.753ZM93.2047 9.0909C93.2047 9.56817 93.2665 9.98152 93.3901 10.331C93.5179 10.6761 93.6969 10.9446 93.927 11.1364C94.1614 11.3239 94.4405 11.4176 94.7644 11.4176C95.0882 11.4176 95.3631 11.326 95.5889 11.1427C95.819 10.9552 95.9938 10.6889 96.1131 10.3437C96.2367 9.99431 96.2985 9.57669 96.2985 9.0909C96.2985 8.6051 96.2367 8.18962 96.1131 7.84445C95.9938 7.49502 95.819 7.22868 95.5889 7.04544C95.3631 6.85794 95.0882 6.76419 94.7644 6.76419C94.4405 6.76419 94.1614 6.85794 93.927 7.04544C93.6969 7.22868 93.5179 7.49502 93.3901 7.84445C93.2665 8.18962 93.2047 8.6051 93.2047 9.0909Z" fill="white"/>
<path d="M100.327 17.6818V4.18181H103.83V5.89488H103.907C104.035 5.56249 104.222 5.2578 104.469 4.98081C104.716 4.69956 105.023 4.47584 105.39 4.30965C105.756 4.13919 106.182 4.05397 106.668 4.05397C107.316 4.05397 107.932 4.22655 108.516 4.57172C109.104 4.91689 109.581 5.46022 109.947 6.20169C110.318 6.94317 110.503 7.90624 110.503 9.0909C110.503 10.2244 110.327 11.1641 109.973 11.9098C109.623 12.6555 109.155 13.2116 108.567 13.5781C107.983 13.9446 107.341 14.1278 106.643 14.1278C106.182 14.1278 105.771 14.0533 105.409 13.9041C105.051 13.7507 104.744 13.544 104.489 13.2841C104.237 13.0199 104.043 12.7216 103.907 12.3892H103.856V17.6818H100.327ZM103.779 9.0909C103.779 9.56817 103.841 9.98152 103.964 10.331C104.092 10.6761 104.271 10.9446 104.501 11.1364C104.736 11.3239 105.015 11.4176 105.339 11.4176C105.663 11.4176 105.937 11.326 106.163 11.1427C106.393 10.9552 106.568 10.6889 106.687 10.3437C106.811 9.99431 106.873 9.57669 106.873 9.0909C106.873 8.6051 106.811 8.18962 106.687 7.84445C106.568 7.49502 106.393 7.22868 106.163 7.04544C105.937 6.85794 105.663 6.76419 105.339 6.76419C105.015 6.76419 104.736 6.85794 104.501 7.04544C104.271 7.22868 104.092 7.49502 103.964 7.84445C103.841 8.18962 103.779 8.6051 103.779 9.0909Z" fill="white"/>
<path d="M115.606 14.179C114.558 14.179 113.654 13.9787 112.896 13.5781C112.142 13.1733 111.56 12.5937 111.151 11.8395C110.746 11.081 110.544 10.1733 110.544 9.11647C110.544 8.10226 110.748 7.2159 111.157 6.45738C111.566 5.69885 112.144 5.10865 112.89 4.68678C113.635 4.2649 114.515 4.05397 115.529 4.05397C116.271 4.05397 116.942 4.16902 117.543 4.39914C118.144 4.62925 118.657 4.96377 119.083 5.40269C119.51 5.83735 119.838 6.36576 120.068 6.98792C120.298 7.61007 120.413 8.31107 120.413 9.0909V9.90908H111.643V7.9659H117.166C117.162 7.68465 117.089 7.43749 116.948 7.22442C116.812 7.00709 116.627 6.83877 116.392 6.71945C116.162 6.59587 115.9 6.53408 115.606 6.53408C115.321 6.53408 115.059 6.59587 114.82 6.71945C114.581 6.83877 114.39 7.00496 114.245 7.21803C114.104 7.4311 114.029 7.68039 114.021 7.9659V10.0625C114.021 10.3778 114.087 10.6591 114.219 10.9062C114.351 11.1534 114.541 11.3473 114.788 11.4879C115.035 11.6285 115.333 11.6989 115.683 11.6989C115.926 11.6989 116.147 11.6648 116.348 11.5966C116.552 11.5284 116.727 11.4304 116.872 11.3025C117.017 11.1704 117.123 11.0128 117.191 10.8295H120.413C120.302 11.5114 120.04 12.1037 119.627 12.6065C119.213 13.1051 118.666 13.4929 117.984 13.7699C117.306 14.0426 116.514 14.179 115.606 14.179Z" fill="white"/>
<path d="M120.773 14V4.18181H124.199V6.04828H124.301C124.48 5.35794 124.764 4.85297 125.151 4.53337C125.543 4.21377 126.001 4.05397 126.526 4.05397C126.679 4.05397 126.83 4.06675 126.979 4.09232C127.133 4.11363 127.28 4.14559 127.42 4.1882V7.19885C127.246 7.13919 127.031 7.09445 126.775 7.06462C126.519 7.03479 126.3 7.01988 126.117 7.01988C125.771 7.01988 125.46 7.09871 125.183 7.25638C124.911 7.40979 124.695 7.62712 124.538 7.90837C124.38 8.18536 124.301 8.51135 124.301 8.88635V14H120.773Z" fill="white"/>
</svg>
