<svg width="256" height="256" viewBox="0 0 256 256" fill="none" xmlns="http://www.w3.org/2000/svg">
<circle cx="128" cy="128" r="124.5" fill="black" stroke="url(#paint0_linear_15_704)" stroke-width="7"/>
<path d="M79.3855 118.732C79.2361 116.862 78.5357 115.404 77.2844 114.357C76.0517 113.311 74.1747 112.787 71.6533 112.787C70.0471 112.787 68.7304 112.983 67.7032 113.376C66.6946 113.75 65.9476 114.264 65.462 114.918C64.9764 115.573 64.7242 116.32 64.7056 117.162C64.6682 117.853 64.7896 118.48 65.0698 119.04C65.3686 119.583 65.8355 120.078 66.4705 120.527C67.1055 120.957 67.918 121.349 68.9078 121.704C69.8977 122.06 71.0743 122.377 72.4377 122.658L77.1443 123.667C80.3193 124.34 83.0368 125.228 85.2967 126.331C87.5566 127.434 89.4056 128.734 90.8437 130.229C92.2818 131.706 93.337 133.37 94.0094 135.221C94.7004 137.071 95.0553 139.09 95.074 141.278C95.0553 145.054 94.1121 148.251 92.2444 150.868C90.3768 153.485 87.706 155.476 84.2321 156.841C80.7769 158.205 76.6213 158.888 71.7654 158.888C66.7787 158.888 62.427 158.149 58.7103 156.673C55.0123 155.196 52.1361 152.924 50.0817 149.858C48.0459 146.774 47.0187 142.829 47 138.025H61.792C61.8854 139.782 62.3243 141.259 63.1087 142.455C63.8931 143.652 64.9951 144.558 66.4145 145.175C67.8526 145.792 69.5615 146.101 71.5413 146.101C73.2035 146.101 74.5949 145.895 75.7155 145.484C76.8361 145.073 77.6859 144.502 78.2649 143.773C78.8439 143.044 79.1427 142.212 79.1614 141.278C79.1427 140.399 78.8532 139.632 78.2929 138.978C77.7513 138.305 76.8548 137.707 75.6034 137.183C74.3521 136.641 72.6619 136.137 70.5327 135.669L64.8176 134.435C59.7375 133.332 55.7314 131.491 52.7991 128.911C49.8856 126.313 48.4381 122.77 48.4568 118.283C48.4381 114.638 49.4093 111.45 51.3704 108.721C53.3501 105.973 56.0862 103.832 59.5788 102.299C63.09 100.766 67.1149 100 71.6533 100C76.2851 100 80.2913 100.776 83.6718 102.327C87.0523 103.879 89.6577 106.066 91.488 108.889C93.337 111.693 94.2709 114.974 94.2895 118.732H79.3855Z" fill="url(#paint1_linear_15_704)"/>
<path d="M122.152 115.143V126.359H93.8004V115.143H122.152ZM99.2914 104.823H114.756V144.362C114.756 144.96 114.858 145.465 115.064 145.876C115.269 146.269 115.587 146.568 116.016 146.774C116.446 146.961 116.997 147.054 117.669 147.054C118.136 147.054 118.678 146.998 119.294 146.886C119.929 146.774 120.396 146.68 120.695 146.606L122.936 157.486C122.245 157.691 121.255 157.944 119.967 158.243C118.697 158.542 117.184 158.738 115.428 158.832C111.879 159.019 108.901 158.654 106.491 157.738C104.082 156.803 102.27 155.336 101.056 153.336C99.8423 151.335 99.254 148.83 99.2914 145.82V104.823Z" fill="url(#paint2_linear_15_704)"/>
<path d="M154.433 118.732C154.284 116.862 153.583 115.404 152.332 114.357C151.099 113.311 149.222 112.787 146.701 112.787C145.095 112.787 143.778 112.983 142.751 113.376C141.742 113.75 140.995 114.264 140.51 114.918C140.024 115.573 139.772 116.32 139.753 117.162C139.716 117.853 139.837 118.48 140.118 119.04C140.416 119.583 140.883 120.078 141.518 120.527C142.153 120.957 142.966 121.349 143.956 121.704C144.945 122.06 146.122 122.377 147.486 122.658L152.192 123.667C155.367 124.34 158.085 125.228 160.344 126.331C162.604 127.434 164.453 128.734 165.891 130.229C167.33 131.706 168.385 133.37 169.057 135.221C169.748 137.071 170.103 139.09 170.122 141.278C170.103 145.054 169.16 148.251 167.292 150.868C165.425 153.485 162.754 155.476 159.28 156.841C155.825 158.205 151.669 158.888 146.813 158.888C141.826 158.888 137.475 158.149 133.758 156.673C130.06 155.196 127.184 152.924 125.129 149.858C123.094 146.774 122.066 142.829 122.048 138.025H136.84C136.933 139.782 137.372 141.259 138.156 142.455C138.941 143.652 140.043 144.558 141.462 145.175C142.9 145.792 144.609 146.101 146.589 146.101C148.251 146.101 149.643 145.895 150.763 145.484C151.884 145.073 152.734 144.502 153.313 143.773C153.892 143.044 154.19 142.212 154.209 141.278C154.19 140.399 153.901 139.632 153.341 138.978C152.799 138.305 151.903 137.707 150.651 137.183C149.4 136.641 147.71 136.137 145.58 135.669L139.865 134.435C134.785 133.332 130.779 131.491 127.847 128.911C124.933 126.313 123.486 122.77 123.505 118.283C123.486 114.638 124.457 111.45 126.418 108.721C128.398 105.973 131.134 103.832 134.627 102.299C138.138 100.766 142.163 100 146.701 100C151.333 100 155.339 100.776 158.72 102.327C162.1 103.879 164.705 106.066 166.536 108.889C168.385 111.693 169.319 114.974 169.337 118.732H154.433Z" fill="url(#paint3_linear_15_704)"/>
<path d="M192.269 159C187.6 159 183.603 158.075 180.278 156.224C176.954 154.354 174.404 151.756 172.63 148.428C170.856 145.082 169.969 141.203 169.969 136.791C169.969 132.379 170.856 128.509 172.63 125.182C174.404 121.835 176.954 119.237 180.278 117.386C183.603 115.516 187.6 114.582 192.269 114.582C196.49 114.582 200.141 115.348 203.223 116.881C206.323 118.395 208.723 120.545 210.423 123.331C212.122 126.098 212.981 129.35 213 133.089H198.656C198.451 130.827 197.797 129.107 196.695 127.93C195.612 126.733 194.211 126.135 192.493 126.135C191.148 126.135 189.972 126.528 188.963 127.313C187.954 128.079 187.17 129.248 186.61 130.818C186.049 132.37 185.769 134.323 185.769 136.679C185.769 139.034 186.049 140.997 186.61 142.567C187.17 144.119 187.954 145.288 188.963 146.073C189.972 146.839 191.148 147.222 192.493 147.222C193.632 147.222 194.641 146.961 195.519 146.437C196.396 145.895 197.106 145.11 197.648 144.082C198.208 143.035 198.544 141.764 198.656 140.268H213C212.944 144.063 212.075 147.372 210.395 150.195C208.714 152.999 206.332 155.168 203.251 156.701C200.188 158.234 196.527 159 192.269 159Z" fill="url(#paint4_linear_15_704)"/>
<path d="M75.3855 116.732C75.2361 114.862 74.5357 113.404 73.2844 112.357C72.0517 111.311 70.1747 110.787 67.6533 110.787C66.0471 110.787 64.7304 110.983 63.7032 111.376C62.6946 111.75 61.9476 112.264 61.462 112.918C60.9764 113.573 60.7242 114.32 60.7056 115.162C60.6682 115.853 60.7896 116.48 61.0698 117.04C61.3686 117.583 61.8355 118.078 62.4705 118.527C63.1055 118.957 63.918 119.349 64.9078 119.704C65.8977 120.06 67.0743 120.377 68.4377 120.658L73.1443 121.667C76.3193 122.34 79.0368 123.228 81.2967 124.331C83.5566 125.434 85.4056 126.734 86.8437 128.229C88.2818 129.706 89.337 131.37 90.0094 133.221C90.7004 135.071 91.0553 137.09 91.074 139.278C91.0553 143.054 90.1121 146.251 88.2444 148.868C86.3768 151.485 83.706 153.476 80.2321 154.841C76.7769 156.205 72.6213 156.888 67.7654 156.888C62.7787 156.888 58.427 156.149 54.7103 154.673C51.0123 153.196 48.1361 150.924 46.0817 147.858C44.0459 144.774 43.0187 140.829 43 136.025H57.792C57.8854 137.782 58.3243 139.259 59.1087 140.455C59.8931 141.652 60.9951 142.558 62.4145 143.175C63.8526 143.792 65.5615 144.101 67.5413 144.101C69.2035 144.101 70.5949 143.895 71.7155 143.484C72.8361 143.073 73.6859 142.502 74.2649 141.773C74.8439 141.044 75.1427 140.212 75.1614 139.278C75.1427 138.399 74.8532 137.632 74.2929 136.978C73.7513 136.305 72.8548 135.707 71.6034 135.183C70.3521 134.641 68.6619 134.137 66.5327 133.669L60.8176 132.435C55.7375 131.332 51.7314 129.491 48.7991 126.911C45.8856 124.313 44.4381 120.77 44.4568 116.283C44.4381 112.638 45.4093 109.45 47.3704 106.721C49.3501 103.973 52.0862 101.832 55.5788 100.299C59.09 98.7665 63.1149 98 67.6533 98C72.2851 98 76.2913 98.7758 79.6718 100.327C83.0523 101.879 85.6577 104.066 87.488 106.889C89.337 109.693 90.2709 112.974 90.2895 116.732H75.3855Z" fill="white"/>
<path d="M118.152 113.143V124.359H89.8004V113.143H118.152ZM95.2914 102.823H110.756V142.362C110.756 142.96 110.858 143.465 111.064 143.876C111.269 144.269 111.587 144.568 112.016 144.774C112.446 144.961 112.997 145.054 113.669 145.054C114.136 145.054 114.678 144.998 115.294 144.886C115.929 144.774 116.396 144.68 116.695 144.606L118.936 155.486C118.245 155.691 117.255 155.944 115.967 156.243C114.697 156.542 113.184 156.738 111.428 156.832C107.879 157.019 104.901 156.654 102.491 155.738C100.082 154.803 98.2703 153.336 97.0563 151.336C95.8423 149.335 95.254 146.83 95.2914 143.82V102.823Z" fill="white"/>
<path d="M150.433 116.732C150.284 114.862 149.583 113.404 148.332 112.357C147.099 111.311 145.222 110.787 142.701 110.787C141.095 110.787 139.778 110.983 138.751 111.376C137.742 111.75 136.995 112.264 136.51 112.918C136.024 113.573 135.772 114.32 135.753 115.162C135.716 115.853 135.837 116.48 136.118 117.04C136.416 117.583 136.883 118.078 137.518 118.527C138.153 118.957 138.966 119.349 139.956 119.704C140.945 120.06 142.122 120.377 143.486 120.658L148.192 121.667C151.367 122.34 154.085 123.228 156.344 124.331C158.604 125.434 160.453 126.734 161.891 128.229C163.33 129.706 164.385 131.37 165.057 133.221C165.748 135.071 166.103 137.09 166.122 139.278C166.103 143.054 165.16 146.251 163.292 148.868C161.425 151.485 158.754 153.476 155.28 154.841C151.825 156.205 147.669 156.888 142.813 156.888C137.826 156.888 133.475 156.149 129.758 154.673C126.06 153.196 123.184 150.924 121.129 147.858C119.094 144.774 118.066 140.829 118.048 136.025H132.84C132.933 137.782 133.372 139.259 134.156 140.455C134.941 141.652 136.043 142.558 137.462 143.175C138.9 143.792 140.609 144.101 142.589 144.101C144.251 144.101 145.643 143.895 146.763 143.484C147.884 143.073 148.734 142.502 149.313 141.773C149.892 141.044 150.19 140.212 150.209 139.278C150.19 138.399 149.901 137.632 149.341 136.978C148.799 136.305 147.903 135.707 146.651 135.183C145.4 134.641 143.71 134.137 141.58 133.669L135.865 132.435C130.785 131.332 126.779 129.491 123.847 126.911C120.933 124.313 119.486 120.77 119.505 116.283C119.486 112.638 120.457 109.45 122.418 106.721C124.398 103.973 127.134 101.832 130.627 100.299C134.138 98.7665 138.163 98 142.701 98C147.333 98 151.339 98.7758 154.72 100.327C158.1 101.879 160.705 104.066 162.536 106.889C164.385 109.693 165.319 112.974 165.337 116.732H150.433Z" fill="white"/>
<path d="M188.269 157C183.6 157 179.603 156.075 176.278 154.224C172.954 152.354 170.404 149.756 168.63 146.428C166.856 143.082 165.969 139.203 165.969 134.791C165.969 130.379 166.856 126.509 168.63 123.182C170.404 119.835 172.954 117.237 176.278 115.386C179.603 113.516 183.6 112.582 188.269 112.582C192.49 112.582 196.141 113.348 199.223 114.881C202.323 116.395 204.723 118.545 206.423 121.331C208.122 124.098 208.981 127.35 209 131.089H194.656C194.451 128.827 193.797 127.107 192.695 125.93C191.612 124.733 190.211 124.135 188.493 124.135C187.148 124.135 185.972 124.528 184.963 125.313C183.954 126.079 183.17 127.248 182.61 128.818C182.049 130.37 181.769 132.323 181.769 134.679C181.769 137.034 182.049 138.997 182.61 140.567C183.17 142.119 183.954 143.288 184.963 144.073C185.972 144.839 187.148 145.222 188.493 145.222C189.632 145.222 190.641 144.961 191.519 144.437C192.396 143.895 193.106 143.11 193.648 142.082C194.208 141.035 194.544 139.764 194.656 138.268H209C208.944 142.063 208.075 145.372 206.395 148.195C204.714 150.999 202.332 153.168 199.251 154.701C196.188 156.234 192.527 157 188.269 157Z" fill="white"/>
<defs>
<linearGradient id="paint0_linear_15_704" x1="128" y1="0" x2="128" y2="256" gradientUnits="userSpaceOnUse">
<stop stop-color="#D095FF"/>
<stop offset="1" stop-color="#7761FF"/>
</linearGradient>
<linearGradient id="paint1_linear_15_704" x1="130" y1="100" x2="130" y2="159" gradientUnits="userSpaceOnUse">
<stop stop-color="#D095FF"/>
<stop offset="1" stop-color="#7761FF"/>
</linearGradient>
<linearGradient id="paint2_linear_15_704" x1="130" y1="100" x2="130" y2="159" gradientUnits="userSpaceOnUse">
<stop stop-color="#D095FF"/>
<stop offset="1" stop-color="#7761FF"/>
</linearGradient>
<linearGradient id="paint3_linear_15_704" x1="130" y1="100" x2="130" y2="159" gradientUnits="userSpaceOnUse">
<stop stop-color="#D095FF"/>
<stop offset="1" stop-color="#7761FF"/>
</linearGradient>
<linearGradient id="paint4_linear_15_704" x1="130" y1="100" x2="130" y2="159" gradientUnits="userSpaceOnUse">
<stop stop-color="#D095FF"/>
<stop offset="1" stop-color="#7761FF"/>
</linearGradient>
</defs>
</svg>
